<?xml version="1.0" encoding="iso-8859-1"?>
<!-- Generator: Adobe Illustrator 19.0.0, SVG Export Plug-In . SVG Version: 6.00 Build 0)  -->
<svg version="1.1" id="Layer_1" xmlns="http://www.w3.org/2000/svg" xmlns:xlink="http://www.w3.org/1999/xlink" x="0px" y="0px"
	 viewBox="0 0 499.624 499.624" style="enable-background:new 0 0 499.624 499.624;" xml:space="preserve">
<g>
	<g>
		<g>
			<path d="M497.812,319.272v-57.144l-224-86.2v-14.8l16,6.12v-57.136L1.812,0v57.136l16,6.12v420.368h-16v16h496v-16h-16V313.112
				L497.812,319.272z M17.812,23.248l256,97.88v22.864l-256-97.872V23.248z M241.812,451.624h-16v16h16v16h-160v-16h128v-16h-128
				v-16h160V451.624z M241.812,419.624h-160v-16h160V419.624z M241.812,355.624h-128v16h128v16h-160v-16h16v-16h-16v-16h160V355.624
				z M241.812,323.624h-160v-16h160V323.624z M465.812,483.624h-208v-176h16v-16h-224v16h16v176h-32V69.368l224,85.648v71.896
				l208,80.048V483.624z M273.812,215.928v-22.856l208,80.048v22.856L273.812,215.928z"/>
			<path d="M449.812,323.624h-160v112h160V323.624z M361.812,419.624h-56v-32h56V419.624z M361.812,371.624h-56v-32h56V371.624z
				 M433.812,419.624h-56v-32h56V419.624z M433.812,371.624h-56v-32h56V371.624z"/>
			<path d="M81.812,267.624h128v-112h-128V267.624z M153.812,171.624h40v32h-40V171.624z M153.812,219.624h40v32h-40V219.624z
				 M97.812,171.624h40v32h-40V171.624z M97.812,219.624h40v32h-40V219.624z"/>
		</g>
	</g>
</g>
<g>
</g>
<g>
</g>
<g>
</g>
<g>
</g>
<g>
</g>
<g>
</g>
<g>
</g>
<g>
</g>
<g>
</g>
<g>
</g>
<g>
</g>
<g>
</g>
<g>
</g>
<g>
</g>
<g>
</g>
</svg>
